<mxfile host="app.diagrams.net" modified="2024-03-30T06:58:15.836Z" agent="Mozilla/5.0 (Windows NT 10.0; Win64; x64) AppleWebKit/537.36 (KHTML, like Gecko) Chrome/122.0.0.0 Safari/537.36" etag="RIFStwaDBSpA4nm3uhgf" version="24.0.6" type="device">
  <diagram name="Page-1" id="0783ab3e-0a74-02c8-0abd-f7b4e66b4bec">
    <mxGraphModel dx="1216" dy="525" grid="1" gridSize="10" guides="1" tooltips="1" connect="1" arrows="1" fold="1" page="1" pageScale="1" pageWidth="850" pageHeight="1100" background="none" math="0" shadow="0">
      <root>
        <mxCell id="0" />
        <mxCell id="1" parent="0" />
        <mxCell id="1c1d494c118603dd-1" value="CreateWallet" style="swimlane;html=1;childLayout=stackLayout;startSize=20;rounded=0;shadow=0;comic=0;labelBackgroundColor=none;strokeWidth=1;fontFamily=Verdana;fontSize=12;align=center;" parent="1" vertex="1">
          <mxGeometry x="40" y="20" width="500" height="520" as="geometry" />
        </mxCell>
        <mxCell id="1c1d494c118603dd-2" value="User" style="swimlane;html=1;startSize=20;" parent="1c1d494c118603dd-1" vertex="1">
          <mxGeometry y="20" width="250" height="500" as="geometry" />
        </mxCell>
        <mxCell id="60571a20871a0731-4" value="" style="ellipse;whiteSpace=wrap;html=1;rounded=0;shadow=0;comic=0;labelBackgroundColor=none;strokeWidth=1;fillColor=#000000;fontFamily=Verdana;fontSize=12;align=center;" parent="1c1d494c118603dd-2" vertex="1">
          <mxGeometry x="100" y="40" width="40" height="40" as="geometry" />
        </mxCell>
        <mxCell id="60571a20871a0731-8" value="Action" style="rounded=1;whiteSpace=wrap;html=1;shadow=0;comic=0;labelBackgroundColor=none;strokeWidth=1;fontFamily=Verdana;fontSize=12;align=center;arcSize=50;" parent="1c1d494c118603dd-2" vertex="1">
          <mxGeometry x="70" y="110" width="100" height="30" as="geometry" />
        </mxCell>
        <mxCell id="1c1d494c118603dd-27" style="edgeStyle=orthogonalEdgeStyle;rounded=0;html=1;labelBackgroundColor=none;startArrow=none;startFill=0;startSize=5;endArrow=classicThin;endFill=1;endSize=5;jettySize=auto;orthogonalLoop=1;strokeWidth=1;fontFamily=Verdana;fontSize=12" parent="1c1d494c118603dd-2" source="60571a20871a0731-4" target="60571a20871a0731-8" edge="1">
          <mxGeometry relative="1" as="geometry" />
        </mxCell>
        <mxCell id="yX-Vx9N_pX2fVVw5_eaG-4" value="Điền số tiền hiện có, logo, color,..." style="rounded=1;whiteSpace=wrap;html=1;shadow=0;comic=0;labelBackgroundColor=none;strokeWidth=1;fontFamily=Verdana;fontSize=12;align=center;arcSize=50;" vertex="1" parent="1c1d494c118603dd-2">
          <mxGeometry x="55" y="180" width="125" height="42" as="geometry" />
        </mxCell>
        <mxCell id="yX-Vx9N_pX2fVVw5_eaG-8" value="" style="html=1;whiteSpace=wrap;aspect=fixed;shape=isoRectangle;" vertex="1" parent="1c1d494c118603dd-2">
          <mxGeometry x="100.84" y="330" width="33.33" height="20" as="geometry" />
        </mxCell>
        <mxCell id="yX-Vx9N_pX2fVVw5_eaG-9" value="" style="shape=mxgraph.bpmn.shape;html=1;verticalLabelPosition=bottom;labelBackgroundColor=#ffffff;verticalAlign=top;perimeter=ellipsePerimeter;outline=end;symbol=terminate;rounded=0;shadow=0;comic=0;strokeWidth=1;fontFamily=Verdana;fontSize=12;align=center;" vertex="1" parent="1c1d494c118603dd-2">
          <mxGeometry x="97.5" y="410" width="40" height="40" as="geometry" />
        </mxCell>
        <mxCell id="yX-Vx9N_pX2fVVw5_eaG-10" value="Lưu Wallet" style="rounded=1;whiteSpace=wrap;html=1;shadow=0;comic=0;labelBackgroundColor=none;strokeWidth=1;fontFamily=Verdana;fontSize=12;align=center;arcSize=50;" vertex="1" parent="1c1d494c118603dd-2">
          <mxGeometry x="57.5" y="260" width="125" height="42" as="geometry" />
        </mxCell>
        <mxCell id="yX-Vx9N_pX2fVVw5_eaG-11" style="edgeStyle=orthogonalEdgeStyle;rounded=0;html=1;labelBackgroundColor=none;startArrow=none;startFill=0;startSize=5;endArrow=classicThin;endFill=1;endSize=5;jettySize=auto;orthogonalLoop=1;strokeWidth=1;fontFamily=Verdana;fontSize=12" edge="1" parent="1c1d494c118603dd-2" source="yX-Vx9N_pX2fVVw5_eaG-4" target="yX-Vx9N_pX2fVVw5_eaG-10">
          <mxGeometry relative="1" as="geometry">
            <mxPoint x="120" y="200" as="sourcePoint" />
            <mxPoint x="130" y="120" as="targetPoint" />
          </mxGeometry>
        </mxCell>
        <mxCell id="yX-Vx9N_pX2fVVw5_eaG-14" style="edgeStyle=orthogonalEdgeStyle;rounded=0;html=1;labelBackgroundColor=none;startArrow=none;startFill=0;startSize=5;endArrow=classicThin;endFill=1;endSize=5;jettySize=auto;orthogonalLoop=1;strokeWidth=1;fontFamily=Verdana;fontSize=12;entryX=0.485;entryY=0.008;entryDx=0;entryDy=0;entryPerimeter=0;" edge="1" parent="1c1d494c118603dd-2" source="yX-Vx9N_pX2fVVw5_eaG-10" target="yX-Vx9N_pX2fVVw5_eaG-8">
          <mxGeometry relative="1" as="geometry">
            <Array as="points">
              <mxPoint x="117" y="320" />
              <mxPoint x="117" y="320" />
            </Array>
            <mxPoint x="208" y="340" as="sourcePoint" />
            <mxPoint y="387" as="targetPoint" />
          </mxGeometry>
        </mxCell>
        <mxCell id="yX-Vx9N_pX2fVVw5_eaG-17" style="edgeStyle=orthogonalEdgeStyle;rounded=0;html=1;labelBackgroundColor=none;startArrow=none;startFill=0;startSize=5;endArrow=classicThin;endFill=1;endSize=5;jettySize=auto;orthogonalLoop=1;strokeWidth=1;fontFamily=Verdana;fontSize=12;exitX=0.495;exitY=1.093;exitDx=0;exitDy=0;exitPerimeter=0;" edge="1" parent="1c1d494c118603dd-2" source="yX-Vx9N_pX2fVVw5_eaG-8" target="yX-Vx9N_pX2fVVw5_eaG-9">
          <mxGeometry relative="1" as="geometry">
            <Array as="points" />
            <mxPoint x="127" y="312" as="sourcePoint" />
            <mxPoint x="127" y="340" as="targetPoint" />
          </mxGeometry>
        </mxCell>
        <mxCell id="yX-Vx9N_pX2fVVw5_eaG-18" value="Hủy" style="edgeLabel;html=1;align=center;verticalAlign=middle;resizable=0;points=[];" vertex="1" connectable="0" parent="yX-Vx9N_pX2fVVw5_eaG-17">
          <mxGeometry x="-0.1804" y="1" relative="1" as="geometry">
            <mxPoint as="offset" />
          </mxGeometry>
        </mxCell>
        <mxCell id="yX-Vx9N_pX2fVVw5_eaG-2" style="edgeStyle=orthogonalEdgeStyle;rounded=0;html=1;labelBackgroundColor=none;startArrow=none;startFill=0;startSize=5;endArrow=classicThin;endFill=1;endSize=5;jettySize=auto;orthogonalLoop=1;strokeWidth=1;fontFamily=Verdana;fontSize=12" edge="1" parent="1c1d494c118603dd-1" target="yX-Vx9N_pX2fVVw5_eaG-1" source="60571a20871a0731-8">
          <mxGeometry relative="1" as="geometry">
            <Array as="points">
              <mxPoint x="370" y="145" />
              <mxPoint x="370" y="145" />
            </Array>
            <mxPoint x="170" y="90" as="sourcePoint" />
          </mxGeometry>
        </mxCell>
        <mxCell id="yX-Vx9N_pX2fVVw5_eaG-5" style="edgeStyle=orthogonalEdgeStyle;rounded=0;html=1;labelBackgroundColor=none;startArrow=none;startFill=0;startSize=5;endArrow=classicThin;endFill=1;endSize=5;jettySize=auto;orthogonalLoop=1;strokeWidth=1;fontFamily=Verdana;fontSize=12" edge="1" parent="1c1d494c118603dd-1" target="yX-Vx9N_pX2fVVw5_eaG-4" source="yX-Vx9N_pX2fVVw5_eaG-1">
          <mxGeometry relative="1" as="geometry">
            <Array as="points">
              <mxPoint x="388" y="217" />
            </Array>
            <mxPoint x="-100" y="217" as="sourcePoint" />
          </mxGeometry>
        </mxCell>
        <mxCell id="1c1d494c118603dd-3" value="System" style="swimlane;html=1;startSize=20;" parent="1c1d494c118603dd-1" vertex="1">
          <mxGeometry x="250" y="20" width="250" height="500" as="geometry" />
        </mxCell>
        <mxCell id="yX-Vx9N_pX2fVVw5_eaG-1" value="Hiển thị màn hình Tạo Wallet" style="rounded=1;whiteSpace=wrap;html=1;shadow=0;comic=0;labelBackgroundColor=none;strokeWidth=1;fontFamily=Verdana;fontSize=12;align=center;arcSize=50;" vertex="1" parent="1c1d494c118603dd-3">
          <mxGeometry x="75" y="108" width="125" height="42" as="geometry" />
        </mxCell>
        <mxCell id="60571a20871a0731-5" value="" style="shape=mxgraph.bpmn.shape;html=1;verticalLabelPosition=bottom;labelBackgroundColor=#ffffff;verticalAlign=top;perimeter=ellipsePerimeter;outline=end;symbol=terminate;rounded=0;shadow=0;comic=0;strokeWidth=1;fontFamily=Verdana;fontSize=12;align=center;" parent="1c1d494c118603dd-3" vertex="1">
          <mxGeometry x="115" y="410" width="40" height="40" as="geometry" />
        </mxCell>
        <mxCell id="yX-Vx9N_pX2fVVw5_eaG-6" value="Tạo Wallet trong hệ thống, hiển thị cho người dùng" style="rounded=1;whiteSpace=wrap;html=1;shadow=0;comic=0;labelBackgroundColor=none;strokeWidth=1;fontFamily=Verdana;fontSize=12;align=center;arcSize=50;" vertex="1" parent="1c1d494c118603dd-3">
          <mxGeometry x="75" y="310" width="137" height="60" as="geometry" />
        </mxCell>
        <mxCell id="yX-Vx9N_pX2fVVw5_eaG-19" style="edgeStyle=orthogonalEdgeStyle;rounded=0;html=1;labelBackgroundColor=none;startArrow=none;startFill=0;startSize=5;endArrow=classicThin;endFill=1;endSize=5;jettySize=auto;orthogonalLoop=1;strokeWidth=1;fontFamily=Verdana;fontSize=12;entryX=0.5;entryY=0;entryDx=0;entryDy=0;" edge="1" parent="1c1d494c118603dd-3" source="yX-Vx9N_pX2fVVw5_eaG-6" target="60571a20871a0731-5">
          <mxGeometry relative="1" as="geometry">
            <Array as="points">
              <mxPoint x="135" y="380" />
              <mxPoint x="135" y="380" />
            </Array>
            <mxPoint x="-85" y="390" as="sourcePoint" />
            <mxPoint x="70" y="390" as="targetPoint" />
          </mxGeometry>
        </mxCell>
        <mxCell id="yX-Vx9N_pX2fVVw5_eaG-15" style="edgeStyle=orthogonalEdgeStyle;rounded=0;html=1;labelBackgroundColor=none;startArrow=none;startFill=0;startSize=5;endArrow=classicThin;endFill=1;endSize=5;jettySize=auto;orthogonalLoop=1;strokeWidth=1;fontFamily=Verdana;fontSize=12" edge="1" parent="1c1d494c118603dd-1" source="yX-Vx9N_pX2fVVw5_eaG-8" target="yX-Vx9N_pX2fVVw5_eaG-6">
          <mxGeometry relative="1" as="geometry">
            <Array as="points" />
            <mxPoint x="140" y="359.40999999999997" as="sourcePoint" />
            <mxPoint x="295" y="359.40999999999997" as="targetPoint" />
          </mxGeometry>
        </mxCell>
        <mxCell id="yX-Vx9N_pX2fVVw5_eaG-16" value="Đồng ý" style="edgeLabel;html=1;align=center;verticalAlign=middle;resizable=0;points=[];" vertex="1" connectable="0" parent="yX-Vx9N_pX2fVVw5_eaG-15">
          <mxGeometry x="-0.0739" y="-2" relative="1" as="geometry">
            <mxPoint as="offset" />
          </mxGeometry>
        </mxCell>
      </root>
    </mxGraphModel>
  </diagram>
</mxfile>
